<mxfile host="app.diagrams.net" agent="Mozilla/5.0 (Macintosh; Intel Mac OS X 10_15_7) AppleWebKit/537.36 (KHTML, like Gecko) Chrome/133.0.0.0 Safari/537.36" version="26.1.3">
  <diagram name="Page-1" id="e7e014a7-5840-1c2e-5031-d8a46d1fe8dd">
    <mxGraphModel dx="2843" dy="761" grid="1" gridSize="10" guides="1" tooltips="1" connect="1" arrows="1" fold="1" page="1" pageScale="1" pageWidth="1169" pageHeight="826" background="none" math="0" shadow="0">
      <root>
        <mxCell id="0" />
        <mxCell id="1" parent="0" />
        <mxCell id="2" value="上门履约" style="swimlane;whiteSpace=wrap" parent="1" vertex="1">
          <mxGeometry x="164.5" y="128" width="280" height="2842" as="geometry" />
        </mxCell>
        <mxCell id="EZE-OWPgXGvBPy29LJ_Y-58" value="给上门工程师派单" style="rounded=1;whiteSpace=wrap;html=1;arcSize=40;fontColor=#000000;fillColor=#ffffc0;strokeColor=#ff0000;" parent="2" vertex="1">
          <mxGeometry x="75.5" y="462" width="120" height="40" as="geometry" />
        </mxCell>
        <mxCell id="EZE-OWPgXGvBPy29LJ_Y-75" value="上门自动确单&lt;div&gt;私域手动确单&lt;/div&gt;" style="rounded=1;whiteSpace=wrap;html=1;arcSize=40;fontColor=#000000;fillColor=#ffffc0;strokeColor=#ff0000;" parent="2" vertex="1">
          <mxGeometry x="75.5" y="285" width="120" height="40" as="geometry" />
        </mxCell>
        <mxCell id="EZE-OWPgXGvBPy29LJ_Y-64" value="上门工程师开始处理" style="rounded=1;whiteSpace=wrap;html=1;arcSize=40;fontColor=#000000;fillColor=#ffffc0;strokeColor=#ff0000;" parent="2" vertex="1">
          <mxGeometry x="80" y="792" width="120" height="48" as="geometry" />
        </mxCell>
        <mxCell id="EZE-OWPgXGvBPy29LJ_Y-111" value="上门工程师签到" style="rounded=1;whiteSpace=wrap;html=1;arcSize=40;fontColor=#000000;fillColor=#ffffc0;strokeColor=#ff0000;" parent="2" vertex="1">
          <mxGeometry x="75.5" y="572" width="120" height="40" as="geometry" />
        </mxCell>
        <mxCell id="EZE-OWPgXGvBPy29LJ_Y-132" value="上门工程师前往服务" style="rounded=1;whiteSpace=wrap;html=1;arcSize=40;fontColor=#000000;fillColor=#ffffc0;strokeColor=#ff0000;" parent="2" vertex="1">
          <mxGeometry x="75.5" y="520" width="120" height="40" as="geometry" />
        </mxCell>
        <mxCell id="EZE-OWPgXGvBPy29LJ_Y-140" value="提交回仓任务" style="rounded=1;whiteSpace=wrap;html=1;arcSize=40;fontColor=#000000;fillColor=#ffffc0;strokeColor=#ff0000;" parent="2" vertex="1">
          <mxGeometry x="75.5" y="1762" width="120" height="40" as="geometry" />
        </mxCell>
        <mxCell id="EZE-OWPgXGvBPy29LJ_Y-174" value="增单" style="rounded=1;whiteSpace=wrap;html=1;arcSize=40;fontColor=#000000;fillColor=#ffffc0;strokeColor=#ff0000;" parent="2" vertex="1">
          <mxGeometry x="75.5" y="646" width="120" height="40" as="geometry" />
        </mxCell>
        <mxCell id="EZE-OWPgXGvBPy29LJ_Y-193" value="上门工程师确认打款" style="rounded=1;whiteSpace=wrap;html=1;arcSize=40;fontColor=#000000;fillColor=#ffffc0;strokeColor=#ff0000;" parent="2" vertex="1">
          <mxGeometry x="80.00000000000006" y="1512" width="120" height="40" as="geometry" />
        </mxCell>
        <mxCell id="zwzdZRf4PgVf-TQgRxlS-28" value="创建邮寄任务" style="rounded=1;whiteSpace=wrap;html=1;arcSize=40;fontColor=#000000;fillColor=#ffffc0;strokeColor=#ff0000;" parent="2" vertex="1">
          <mxGeometry x="75.5" y="1592" width="120" height="40" as="geometry" />
        </mxCell>
        <mxCell id="EZE-OWPgXGvBPy29LJ_Y-68" value="提交验货报告成色点" style="rounded=1;whiteSpace=wrap;html=1;arcSize=40;fontColor=#000000;fillColor=#ffffc0;strokeColor=#ff0000;" parent="2" vertex="1">
          <mxGeometry x="80" y="896" width="120" height="40" as="geometry" />
        </mxCell>
        <mxCell id="Bzt49c9w2lYfbCFxkrCM-28" style="edgeStyle=orthogonalEdgeStyle;rounded=0;orthogonalLoop=1;jettySize=auto;html=1;" edge="1" parent="2" source="EZE-OWPgXGvBPy29LJ_Y-88" target="EZE-OWPgXGvBPy29LJ_Y-89">
          <mxGeometry relative="1" as="geometry" />
        </mxCell>
        <mxCell id="EZE-OWPgXGvBPy29LJ_Y-88" value="工程师提交鉴定点&lt;div&gt;鉴定师提交鉴定结果&lt;/div&gt;" style="rounded=1;whiteSpace=wrap;html=1;arcSize=40;fontColor=#000000;fillColor=#ffffc0;strokeColor=#ff0000;" parent="2" vertex="1">
          <mxGeometry x="95.5" y="1142" width="120" height="38" as="geometry" />
        </mxCell>
        <mxCell id="EZE-OWPgXGvBPy29LJ_Y-89" value="鉴定结果" style="html=1;whiteSpace=wrap;aspect=fixed;shape=isoRectangle;" parent="2" vertex="1">
          <mxGeometry x="107.17000000000007" y="1237" width="96.67" height="58" as="geometry" />
        </mxCell>
        <mxCell id="0cEzOgvrc82-WshAzxFz-15" value="创建回仓任务" style="rounded=1;whiteSpace=wrap;html=1;arcSize=40;fontColor=#000000;fillColor=#ffffc0;strokeColor=#ff0000;" parent="2" vertex="1">
          <mxGeometry x="75.5" y="1682" width="120" height="40" as="geometry" />
        </mxCell>
        <mxCell id="Bzt49c9w2lYfbCFxkrCM-36" style="edgeStyle=orthogonalEdgeStyle;rounded=0;orthogonalLoop=1;jettySize=auto;html=1;dashed=1;entryX=0.5;entryY=0;entryDx=0;entryDy=0;exitX=0.5;exitY=1;exitDx=0;exitDy=0;" edge="1" parent="2" source="0cEzOgvrc82-WshAzxFz-15" target="EZE-OWPgXGvBPy29LJ_Y-140">
          <mxGeometry relative="1" as="geometry">
            <Array as="points">
              <mxPoint x="136" y="1742" />
              <mxPoint x="136" y="1742" />
            </Array>
            <mxPoint x="336.5" y="1632" as="sourcePoint" />
            <mxPoint x="45.5" y="1914" as="targetPoint" />
          </mxGeometry>
        </mxCell>
        <mxCell id="Bzt49c9w2lYfbCFxkrCM-37" style="edgeStyle=orthogonalEdgeStyle;rounded=0;orthogonalLoop=1;jettySize=auto;html=1;dashed=1;entryX=0;entryY=0.5;entryDx=0;entryDy=0;exitX=0;exitY=0.5;exitDx=0;exitDy=0;" edge="1" parent="2" source="zwzdZRf4PgVf-TQgRxlS-28" target="EZE-OWPgXGvBPy29LJ_Y-140">
          <mxGeometry relative="1" as="geometry">
            <Array as="points">
              <mxPoint x="36" y="1612" />
              <mxPoint x="36" y="1782" />
            </Array>
            <mxPoint x="146" y="1732" as="sourcePoint" />
            <mxPoint x="146" y="1772" as="targetPoint" />
          </mxGeometry>
        </mxCell>
        <mxCell id="EZE-OWPgXGvBPy29LJ_Y-185" value="&lt;span style=&quot;text-wrap-mode: nowrap;&quot;&gt;红布林鉴定完成&lt;/span&gt;" style="rounded=1;whiteSpace=wrap;html=1;arcSize=40;fontColor=#000000;fillColor=#ffffc0;strokeColor=#ff0000;" parent="2" vertex="1">
          <mxGeometry x="75.50000000000011" y="1862" width="120" height="40" as="geometry" />
        </mxCell>
        <mxCell id="3" value="回收单" style="swimlane;whiteSpace=wrap" parent="1" vertex="1">
          <mxGeometry x="445" y="128" width="280" height="2842" as="geometry" />
        </mxCell>
        <mxCell id="15" value="创建回收单(10)" style="" parent="3" vertex="1">
          <mxGeometry x="80.5" y="192" width="110" height="48" as="geometry" />
        </mxCell>
        <mxCell id="Bzt49c9w2lYfbCFxkrCM-22" style="edgeStyle=orthogonalEdgeStyle;rounded=0;orthogonalLoop=1;jettySize=auto;html=1;entryX=0.5;entryY=0;entryDx=0;entryDy=0;" edge="1" parent="3" source="EZE-OWPgXGvBPy29LJ_Y-45" target="15">
          <mxGeometry relative="1" as="geometry" />
        </mxCell>
        <mxCell id="EZE-OWPgXGvBPy29LJ_Y-45" value="下单" style="rounded=1;whiteSpace=wrap;html=1;arcSize=40;fontColor=#000000;fillColor=#ffffc0;strokeColor=#ff0000;" parent="3" vertex="1">
          <mxGeometry x="75.5" y="92" width="120" height="40" as="geometry" />
        </mxCell>
        <mxCell id="EZE-OWPgXGvBPy29LJ_Y-53" value="双方确认回收(40)" style="" parent="3" vertex="1">
          <mxGeometry x="80.5" y="392" width="110" height="48" as="geometry" />
        </mxCell>
        <mxCell id="EZE-OWPgXGvBPy29LJ_Y-61" value="收货（60）" style="" parent="3" vertex="1">
          <mxGeometry x="80" y="722" width="110" height="48" as="geometry" />
        </mxCell>
        <mxCell id="EZE-OWPgXGvBPy29LJ_Y-71" value="质检中（64）" style="" parent="3" vertex="1">
          <mxGeometry x="82.16" y="792" width="110" height="48" as="geometry" />
        </mxCell>
        <mxCell id="EZE-OWPgXGvBPy29LJ_Y-72" value="质检完成-待报价(65)" style="" parent="3" vertex="1">
          <mxGeometry x="80" y="892" width="110" height="48" as="geometry" />
        </mxCell>
        <mxCell id="EZE-OWPgXGvBPy29LJ_Y-83" value="竞拍成功报价(70)" style="" parent="3" vertex="1">
          <mxGeometry x="80" y="1052" width="110" height="48" as="geometry" />
        </mxCell>
        <mxCell id="EZE-OWPgXGvBPy29LJ_Y-90" value="回收取消（90）" style="" parent="3" vertex="1">
          <mxGeometry x="80.5" y="1242" width="110" height="48" as="geometry" />
        </mxCell>
        <mxCell id="EZE-OWPgXGvBPy29LJ_Y-94" value="卖家确认出售（72）" style="" parent="3" vertex="1">
          <mxGeometry x="80.5" y="1422" width="110" height="48" as="geometry" />
        </mxCell>
        <mxCell id="Bzt49c9w2lYfbCFxkrCM-33" style="edgeStyle=orthogonalEdgeStyle;rounded=0;orthogonalLoop=1;jettySize=auto;html=1;entryX=0.5;entryY=0;entryDx=0;entryDy=0;" edge="1" parent="3" source="EZE-OWPgXGvBPy29LJ_Y-95" target="EZE-OWPgXGvBPy29LJ_Y-94">
          <mxGeometry relative="1" as="geometry" />
        </mxCell>
        <mxCell id="EZE-OWPgXGvBPy29LJ_Y-95" value="用户确认" style="rounded=1;whiteSpace=wrap;html=1;arcSize=40;fontColor=#000000;fillColor=#ffffc0;strokeColor=#ff0000;" parent="3" vertex="1">
          <mxGeometry x="75" y="1322" width="120" height="40" as="geometry" />
        </mxCell>
        <mxCell id="EZE-OWPgXGvBPy29LJ_Y-100" value="买家确认购买（80）" style="" parent="3" vertex="1">
          <mxGeometry x="80.5" y="1508" width="110" height="48" as="geometry" />
        </mxCell>
        <mxCell id="EZE-OWPgXGvBPy29LJ_Y-142" value="发货至平台（74）" style="" parent="3" vertex="1">
          <mxGeometry x="80" y="1758" width="110" height="48" as="geometry" />
        </mxCell>
        <mxCell id="EZE-OWPgXGvBPy29LJ_Y-144" value="收货（75）" style="" parent="3" vertex="1">
          <mxGeometry x="80" y="1836" width="110" height="48" as="geometry" />
        </mxCell>
        <mxCell id="EZE-OWPgXGvBPy29LJ_Y-149" value="复质检完成-待报价&#xa;（76）" style="" parent="3" vertex="1">
          <mxGeometry x="80.51" y="1962" width="110" height="48" as="geometry" />
        </mxCell>
        <mxCell id="EZE-OWPgXGvBPy29LJ_Y-165" value="竞拍成功报价(70)" style="" parent="3" vertex="1">
          <mxGeometry x="80" y="2172" width="110" height="48" as="geometry" />
        </mxCell>
        <mxCell id="Bzt49c9w2lYfbCFxkrCM-57" style="edgeStyle=orthogonalEdgeStyle;rounded=0;orthogonalLoop=1;jettySize=auto;html=1;entryX=0.5;entryY=0;entryDx=0;entryDy=0;" edge="1" parent="3" source="EZE-OWPgXGvBPy29LJ_Y-170" target="zwzdZRf4PgVf-TQgRxlS-43">
          <mxGeometry relative="1" as="geometry" />
        </mxCell>
        <mxCell id="EZE-OWPgXGvBPy29LJ_Y-170" value="确认单据完成(80)" style="" parent="3" vertex="1">
          <mxGeometry x="80.51" y="2592" width="110" height="48" as="geometry" />
        </mxCell>
        <mxCell id="Bzt49c9w2lYfbCFxkrCM-56" style="edgeStyle=orthogonalEdgeStyle;rounded=0;orthogonalLoop=1;jettySize=auto;html=1;entryX=0.5;entryY=0;entryDx=0;entryDy=0;" edge="1" parent="3" source="EZE-OWPgXGvBPy29LJ_Y-171" target="EZE-OWPgXGvBPy29LJ_Y-170">
          <mxGeometry relative="1" as="geometry" />
        </mxCell>
        <mxCell id="EZE-OWPgXGvBPy29LJ_Y-171" value="用户同意回收打款" style="rounded=1;whiteSpace=wrap;html=1;arcSize=40;fontColor=#000000;fillColor=#ffffc0;strokeColor=#ff0000;" parent="3" vertex="1">
          <mxGeometry x="75.51" y="2502" width="120" height="40" as="geometry" />
        </mxCell>
        <mxCell id="EZE-OWPgXGvBPy29LJ_Y-179" value="回收取消（90）" style="" parent="3" vertex="1">
          <mxGeometry x="80" y="2242" width="110" height="48" as="geometry" />
        </mxCell>
        <mxCell id="Bzt49c9w2lYfbCFxkrCM-50" style="edgeStyle=orthogonalEdgeStyle;rounded=0;orthogonalLoop=1;jettySize=auto;html=1;" edge="1" parent="3" source="EZE-OWPgXGvBPy29LJ_Y-180" target="Bzt49c9w2lYfbCFxkrCM-49">
          <mxGeometry relative="1" as="geometry" />
        </mxCell>
        <mxCell id="Bzt49c9w2lYfbCFxkrCM-52" value="假" style="edgeLabel;html=1;align=center;verticalAlign=middle;resizable=0;points=[];" vertex="1" connectable="0" parent="Bzt49c9w2lYfbCFxkrCM-50">
          <mxGeometry x="0.0099" relative="1" as="geometry">
            <mxPoint x="1" as="offset" />
          </mxGeometry>
        </mxCell>
        <mxCell id="Bzt49c9w2lYfbCFxkrCM-54" style="edgeStyle=orthogonalEdgeStyle;rounded=0;orthogonalLoop=1;jettySize=auto;html=1;" edge="1" parent="3" source="EZE-OWPgXGvBPy29LJ_Y-180" target="EZE-OWPgXGvBPy29LJ_Y-171">
          <mxGeometry relative="1" as="geometry" />
        </mxCell>
        <mxCell id="Bzt49c9w2lYfbCFxkrCM-55" value="真" style="edgeLabel;html=1;align=center;verticalAlign=middle;resizable=0;points=[];" vertex="1" connectable="0" parent="Bzt49c9w2lYfbCFxkrCM-54">
          <mxGeometry x="-0.3868" y="3" relative="1" as="geometry">
            <mxPoint as="offset" />
          </mxGeometry>
        </mxCell>
        <mxCell id="EZE-OWPgXGvBPy29LJ_Y-180" value="鉴定结果" style="html=1;whiteSpace=wrap;aspect=fixed;shape=isoRectangle;" parent="3" vertex="1">
          <mxGeometry x="86.65999999999994" y="2402" width="96.67" height="58" as="geometry" />
        </mxCell>
        <mxCell id="zwzdZRf4PgVf-TQgRxlS-15" value="创建二段单" style="rounded=1;whiteSpace=wrap;html=1;arcSize=40;fontColor=#000000;fillColor=#ffffc0;strokeColor=#ff0000;" parent="3" vertex="1">
          <mxGeometry x="75" y="1592" width="120" height="40" as="geometry" />
        </mxCell>
        <mxCell id="zwzdZRf4PgVf-TQgRxlS-31" style="edgeStyle=orthogonalEdgeStyle;rounded=0;orthogonalLoop=1;jettySize=auto;html=1;" parent="3" source="EZE-OWPgXGvBPy29LJ_Y-100" target="zwzdZRf4PgVf-TQgRxlS-15" edge="1">
          <mxGeometry relative="1" as="geometry" />
        </mxCell>
        <mxCell id="zwzdZRf4PgVf-TQgRxlS-43" value="创建二段单" style="rounded=1;whiteSpace=wrap;html=1;arcSize=40;fontColor=#000000;fillColor=#ffffc0;strokeColor=#ff0000;" parent="3" vertex="1">
          <mxGeometry x="75.50999999999999" y="2692" width="120" height="40" as="geometry" />
        </mxCell>
        <mxCell id="zwzdZRf4PgVf-TQgRxlS-39" value="二段单回收完成" style="rounded=1;whiteSpace=wrap;html=1;arcSize=40;fontColor=#000000;fillColor=#ffffc0;strokeColor=#ff0000;" parent="3" vertex="1">
          <mxGeometry x="75.51" y="2782" width="120" height="40" as="geometry" />
        </mxCell>
        <mxCell id="Bzt49c9w2lYfbCFxkrCM-18" style="edgeStyle=orthogonalEdgeStyle;rounded=0;orthogonalLoop=1;jettySize=auto;html=1;entryX=0.5;entryY=0;entryDx=0;entryDy=0;dashed=1;" edge="1" parent="3" target="zwzdZRf4PgVf-TQgRxlS-39">
          <mxGeometry relative="1" as="geometry">
            <Array as="points">
              <mxPoint x="130" y="2732" />
            </Array>
            <mxPoint x="130" y="2732" as="sourcePoint" />
            <mxPoint x="25" y="2575" as="targetPoint" />
          </mxGeometry>
        </mxCell>
        <mxCell id="EZE-OWPgXGvBPy29LJ_Y-155" style="edgeStyle=orthogonalEdgeStyle;rounded=0;orthogonalLoop=1;jettySize=auto;html=1;" parent="3" source="EZE-OWPgXGvBPy29LJ_Y-149" target="Bzt49c9w2lYfbCFxkrCM-42" edge="1">
          <mxGeometry relative="1" as="geometry">
            <mxPoint x="135" y="2069" as="targetPoint" />
          </mxGeometry>
        </mxCell>
        <mxCell id="Bzt49c9w2lYfbCFxkrCM-44" style="edgeStyle=orthogonalEdgeStyle;rounded=0;orthogonalLoop=1;jettySize=auto;html=1;" edge="1" parent="3" source="Bzt49c9w2lYfbCFxkrCM-42" target="EZE-OWPgXGvBPy29LJ_Y-165">
          <mxGeometry relative="1" as="geometry" />
        </mxCell>
        <mxCell id="Bzt49c9w2lYfbCFxkrCM-46" value="否" style="edgeLabel;html=1;align=center;verticalAlign=middle;resizable=0;points=[];" vertex="1" connectable="0" parent="Bzt49c9w2lYfbCFxkrCM-44">
          <mxGeometry x="-0.3778" y="2" relative="1" as="geometry">
            <mxPoint as="offset" />
          </mxGeometry>
        </mxCell>
        <mxCell id="Bzt49c9w2lYfbCFxkrCM-42" value="鉴定为真&lt;div&gt;且影响价格&lt;/div&gt;" style="html=1;whiteSpace=wrap;aspect=fixed;shape=isoRectangle;" vertex="1" parent="3">
          <mxGeometry x="83" y="2042" width="105" height="63" as="geometry" />
        </mxCell>
        <mxCell id="Bzt49c9w2lYfbCFxkrCM-51" style="edgeStyle=orthogonalEdgeStyle;rounded=0;orthogonalLoop=1;jettySize=auto;html=1;" edge="1" parent="3" source="Bzt49c9w2lYfbCFxkrCM-49" target="EZE-OWPgXGvBPy29LJ_Y-179">
          <mxGeometry relative="1" as="geometry" />
        </mxCell>
        <mxCell id="Bzt49c9w2lYfbCFxkrCM-53" value="签收" style="edgeLabel;html=1;align=center;verticalAlign=middle;resizable=0;points=[];" vertex="1" connectable="0" parent="Bzt49c9w2lYfbCFxkrCM-51">
          <mxGeometry x="0.0462" y="-1" relative="1" as="geometry">
            <mxPoint x="1" as="offset" />
          </mxGeometry>
        </mxCell>
        <mxCell id="Bzt49c9w2lYfbCFxkrCM-49" value="创建召回单" style="rounded=1;whiteSpace=wrap;html=1;arcSize=40;fontColor=#000000;fillColor=#ffffc0;strokeColor=#ff0000;" vertex="1" parent="3">
          <mxGeometry x="75.5" y="2322" width="120" height="40" as="geometry" />
        </mxCell>
        <mxCell id="EZE-OWPgXGvBPy29LJ_Y-42" value="&lt;font style=&quot;font-size: 22px;&quot;&gt;C2P上门业务流程&lt;/font&gt;" style="text;html=1;align=center;verticalAlign=middle;resizable=0;points=[];autosize=1;strokeColor=none;fillColor=none;" parent="1" vertex="1">
          <mxGeometry x="630" y="10" width="200" height="40" as="geometry" />
        </mxCell>
        <mxCell id="EZE-OWPgXGvBPy29LJ_Y-51" value="商家及红布林竞拍" style="swimlane;whiteSpace=wrap;startSize=23;" parent="1" vertex="1">
          <mxGeometry x="725" y="128" width="280" height="2842" as="geometry" />
        </mxCell>
        <mxCell id="EZE-OWPgXGvBPy29LJ_Y-197" style="edgeStyle=orthogonalEdgeStyle;rounded=0;orthogonalLoop=1;jettySize=auto;html=1;entryX=0.5;entryY=0;entryDx=0;entryDy=0;" parent="EZE-OWPgXGvBPy29LJ_Y-51" source="EZE-OWPgXGvBPy29LJ_Y-80" target="EZE-OWPgXGvBPy29LJ_Y-196" edge="1">
          <mxGeometry relative="1" as="geometry" />
        </mxCell>
        <mxCell id="EZE-OWPgXGvBPy29LJ_Y-199" value="竞拍到期结束" style="edgeLabel;html=1;align=center;verticalAlign=middle;resizable=0;points=[];" parent="EZE-OWPgXGvBPy29LJ_Y-197" vertex="1" connectable="0">
          <mxGeometry x="-0.3333" y="-2" relative="1" as="geometry">
            <mxPoint as="offset" />
          </mxGeometry>
        </mxCell>
        <mxCell id="EZE-OWPgXGvBPy29LJ_Y-80" value="开始并到期结束竞拍" style="rounded=1;whiteSpace=wrap;html=1;arcSize=40;fontColor=#000000;fillColor=#ffffc0;strokeColor=#ff0000;" parent="EZE-OWPgXGvBPy29LJ_Y-51" vertex="1">
          <mxGeometry x="80" y="932" width="120" height="40" as="geometry" />
        </mxCell>
        <mxCell id="EZE-OWPgXGvBPy29LJ_Y-156" value="结束之前的新开一个竞拍" style="rounded=1;whiteSpace=wrap;html=1;arcSize=40;fontColor=#000000;fillColor=#ffffc0;strokeColor=#ff0000;" parent="EZE-OWPgXGvBPy29LJ_Y-51" vertex="1">
          <mxGeometry x="75" y="2053.5" width="120" height="40" as="geometry" />
        </mxCell>
        <mxCell id="EZE-OWPgXGvBPy29LJ_Y-196" value="是否成拍" style="rhombus;whiteSpace=wrap;html=1;" parent="EZE-OWPgXGvBPy29LJ_Y-51" vertex="1">
          <mxGeometry x="72.5" y="1047" width="135" height="58" as="geometry" />
        </mxCell>
        <mxCell id="zwzdZRf4PgVf-TQgRxlS-37" value="买家支付" style="rounded=1;whiteSpace=wrap;html=1;arcSize=40;fontColor=#000000;fillColor=#ffffc0;strokeColor=#ff0000;" parent="EZE-OWPgXGvBPy29LJ_Y-51" vertex="1">
          <mxGeometry x="72.5" y="2592" width="120" height="40" as="geometry" />
        </mxCell>
        <mxCell id="zwzdZRf4PgVf-TQgRxlS-41" value="买家收货" style="rounded=1;whiteSpace=wrap;html=1;arcSize=40;fontColor=#000000;fillColor=#ffffc0;strokeColor=#ff0000;" parent="EZE-OWPgXGvBPy29LJ_Y-51" vertex="1">
          <mxGeometry x="75" y="2782" width="120" height="40" as="geometry" />
        </mxCell>
        <mxCell id="EZE-OWPgXGvBPy29LJ_Y-59" style="edgeStyle=orthogonalEdgeStyle;rounded=0;orthogonalLoop=1;jettySize=auto;html=1;dashed=1;" parent="1" source="EZE-OWPgXGvBPy29LJ_Y-53" target="EZE-OWPgXGvBPy29LJ_Y-58" edge="1">
          <mxGeometry relative="1" as="geometry" />
        </mxCell>
        <mxCell id="EZE-OWPgXGvBPy29LJ_Y-76" style="edgeStyle=orthogonalEdgeStyle;rounded=0;orthogonalLoop=1;jettySize=auto;html=1;entryX=0.5;entryY=0;entryDx=0;entryDy=0;" parent="1" source="15" target="EZE-OWPgXGvBPy29LJ_Y-75" edge="1">
          <mxGeometry relative="1" as="geometry" />
        </mxCell>
        <mxCell id="EZE-OWPgXGvBPy29LJ_Y-82" style="edgeStyle=orthogonalEdgeStyle;rounded=0;orthogonalLoop=1;jettySize=auto;html=1;exitX=1;exitY=0.5;exitDx=0;exitDy=0;entryX=0.5;entryY=0;entryDx=0;entryDy=0;" parent="1" source="EZE-OWPgXGvBPy29LJ_Y-72" target="EZE-OWPgXGvBPy29LJ_Y-80" edge="1">
          <mxGeometry relative="1" as="geometry">
            <mxPoint x="581" y="1120" as="sourcePoint" />
            <mxPoint x="300" y="1202" as="targetPoint" />
          </mxGeometry>
        </mxCell>
        <mxCell id="EZE-OWPgXGvBPy29LJ_Y-187" value="自动触发竞拍" style="edgeLabel;html=1;align=center;verticalAlign=middle;resizable=0;points=[];" parent="EZE-OWPgXGvBPy29LJ_Y-82" vertex="1" connectable="0">
          <mxGeometry x="-0.2374" y="1" relative="1" as="geometry">
            <mxPoint x="1" as="offset" />
          </mxGeometry>
        </mxCell>
        <mxCell id="EZE-OWPgXGvBPy29LJ_Y-67" style="edgeStyle=orthogonalEdgeStyle;rounded=0;orthogonalLoop=1;jettySize=auto;html=1;entryX=0.5;entryY=0;entryDx=0;entryDy=0;dashed=1;" parent="1" source="EZE-OWPgXGvBPy29LJ_Y-61" target="EZE-OWPgXGvBPy29LJ_Y-64" edge="1">
          <mxGeometry relative="1" as="geometry" />
        </mxCell>
        <mxCell id="EZE-OWPgXGvBPy29LJ_Y-70" style="edgeStyle=orthogonalEdgeStyle;rounded=0;orthogonalLoop=1;jettySize=auto;html=1;dashed=1;exitX=0.5;exitY=1;exitDx=0;exitDy=0;" parent="1" source="EZE-OWPgXGvBPy29LJ_Y-71" target="EZE-OWPgXGvBPy29LJ_Y-68" edge="1">
          <mxGeometry relative="1" as="geometry">
            <mxPoint x="525.5" y="934" as="sourcePoint" />
          </mxGeometry>
        </mxCell>
        <mxCell id="EZE-OWPgXGvBPy29LJ_Y-91" style="edgeStyle=orthogonalEdgeStyle;rounded=0;orthogonalLoop=1;jettySize=auto;html=1;entryX=0;entryY=0.5;entryDx=0;entryDy=0;" parent="1" source="EZE-OWPgXGvBPy29LJ_Y-89" target="EZE-OWPgXGvBPy29LJ_Y-90" edge="1">
          <mxGeometry relative="1" as="geometry" />
        </mxCell>
        <mxCell id="EZE-OWPgXGvBPy29LJ_Y-93" value="假" style="edgeLabel;html=1;align=center;verticalAlign=middle;resizable=0;points=[];" parent="EZE-OWPgXGvBPy29LJ_Y-91" vertex="1" connectable="0">
          <mxGeometry x="-0.3194" y="1" relative="1" as="geometry">
            <mxPoint as="offset" />
          </mxGeometry>
        </mxCell>
        <mxCell id="EZE-OWPgXGvBPy29LJ_Y-107" style="edgeStyle=orthogonalEdgeStyle;rounded=0;orthogonalLoop=1;jettySize=auto;html=1;entryX=1;entryY=0.5;entryDx=0;entryDy=0;" parent="1" source="EZE-OWPgXGvBPy29LJ_Y-53" target="EZE-OWPgXGvBPy29LJ_Y-106" edge="1">
          <mxGeometry relative="1" as="geometry" />
        </mxCell>
        <mxCell id="EZE-OWPgXGvBPy29LJ_Y-117" style="edgeStyle=orthogonalEdgeStyle;rounded=0;orthogonalLoop=1;jettySize=auto;html=1;entryX=1;entryY=0.5;entryDx=0;entryDy=0;" parent="1" source="EZE-OWPgXGvBPy29LJ_Y-83" target="EZE-OWPgXGvBPy29LJ_Y-116" edge="1">
          <mxGeometry relative="1" as="geometry" />
        </mxCell>
        <mxCell id="EZE-OWPgXGvBPy29LJ_Y-131" style="edgeStyle=orthogonalEdgeStyle;rounded=0;orthogonalLoop=1;jettySize=auto;html=1;entryX=0;entryY=0.5;entryDx=0;entryDy=0;dashed=1;" parent="1" source="EZE-OWPgXGvBPy29LJ_Y-122" target="EZE-OWPgXGvBPy29LJ_Y-95" edge="1">
          <mxGeometry relative="1" as="geometry" />
        </mxCell>
        <mxCell id="EZE-OWPgXGvBPy29LJ_Y-160" style="edgeStyle=orthogonalEdgeStyle;rounded=0;orthogonalLoop=1;jettySize=auto;html=1;entryX=0;entryY=0.5;entryDx=0;entryDy=0;exitX=1;exitY=0.524;exitDx=0;exitDy=0;exitPerimeter=0;" parent="1" source="Bzt49c9w2lYfbCFxkrCM-42" target="EZE-OWPgXGvBPy29LJ_Y-156" edge="1">
          <mxGeometry relative="1" as="geometry">
            <mxPoint x="628.8299999999999" y="2289" as="sourcePoint" />
          </mxGeometry>
        </mxCell>
        <mxCell id="EZE-OWPgXGvBPy29LJ_Y-161" value="是" style="edgeLabel;html=1;align=center;verticalAlign=middle;resizable=0;points=[];" parent="EZE-OWPgXGvBPy29LJ_Y-160" vertex="1" connectable="0">
          <mxGeometry x="0.0066" y="1" relative="1" as="geometry">
            <mxPoint as="offset" />
          </mxGeometry>
        </mxCell>
        <mxCell id="EZE-OWPgXGvBPy29LJ_Y-175" value="" style="edgeStyle=orthogonalEdgeStyle;html=1;verticalAlign=bottom;endArrow=open;endSize=8;strokeColor=#ff0000;rounded=0;entryX=0.5;entryY=0;entryDx=0;entryDy=0;" parent="1" source="EZE-OWPgXGvBPy29LJ_Y-174" target="EZE-OWPgXGvBPy29LJ_Y-61" edge="1">
          <mxGeometry relative="1" as="geometry">
            <mxPoint x="500" y="840" as="targetPoint" />
          </mxGeometry>
        </mxCell>
        <mxCell id="EZE-OWPgXGvBPy29LJ_Y-189" style="edgeStyle=orthogonalEdgeStyle;rounded=0;orthogonalLoop=1;jettySize=auto;html=1;dashed=1;" parent="1" source="EZE-OWPgXGvBPy29LJ_Y-83" target="EZE-OWPgXGvBPy29LJ_Y-88" edge="1">
          <mxGeometry relative="1" as="geometry">
            <Array as="points">
              <mxPoint x="580" y="1240" />
              <mxPoint x="320" y="1240" />
            </Array>
          </mxGeometry>
        </mxCell>
        <mxCell id="EZE-OWPgXGvBPy29LJ_Y-191" style="edgeStyle=orthogonalEdgeStyle;rounded=0;orthogonalLoop=1;jettySize=auto;html=1;entryX=1;entryY=0.5;entryDx=0;entryDy=0;" parent="1" source="EZE-OWPgXGvBPy29LJ_Y-94" target="EZE-OWPgXGvBPy29LJ_Y-190" edge="1">
          <mxGeometry relative="1" as="geometry" />
        </mxCell>
        <mxCell id="EZE-OWPgXGvBPy29LJ_Y-195" style="edgeStyle=orthogonalEdgeStyle;rounded=0;orthogonalLoop=1;jettySize=auto;html=1;entryX=0.437;entryY=0.013;entryDx=0;entryDy=0;entryPerimeter=0;dashed=1;" parent="1" source="EZE-OWPgXGvBPy29LJ_Y-94" target="EZE-OWPgXGvBPy29LJ_Y-193" edge="1">
          <mxGeometry relative="1" as="geometry">
            <Array as="points">
              <mxPoint x="581" y="1620" />
              <mxPoint x="297" y="1620" />
            </Array>
          </mxGeometry>
        </mxCell>
        <mxCell id="EZE-OWPgXGvBPy29LJ_Y-198" style="edgeStyle=orthogonalEdgeStyle;rounded=0;orthogonalLoop=1;jettySize=auto;html=1;entryX=1;entryY=0.5;entryDx=0;entryDy=0;" parent="1" source="EZE-OWPgXGvBPy29LJ_Y-196" target="EZE-OWPgXGvBPy29LJ_Y-83" edge="1">
          <mxGeometry relative="1" as="geometry" />
        </mxCell>
        <mxCell id="EZE-OWPgXGvBPy29LJ_Y-200" value="是" style="edgeLabel;html=1;align=center;verticalAlign=middle;resizable=0;points=[];" parent="EZE-OWPgXGvBPy29LJ_Y-198" vertex="1" connectable="0">
          <mxGeometry x="-0.5672" y="-3" relative="1" as="geometry">
            <mxPoint as="offset" />
          </mxGeometry>
        </mxCell>
        <mxCell id="EZE-OWPgXGvBPy29LJ_Y-201" style="edgeStyle=orthogonalEdgeStyle;rounded=0;orthogonalLoop=1;jettySize=auto;html=1;entryX=1;entryY=0.5;entryDx=0;entryDy=0;" parent="1" source="EZE-OWPgXGvBPy29LJ_Y-196" target="EZE-OWPgXGvBPy29LJ_Y-90" edge="1">
          <mxGeometry relative="1" as="geometry">
            <mxPoint x="650" y="1400" as="targetPoint" />
            <Array as="points">
              <mxPoint x="865" y="1394" />
            </Array>
          </mxGeometry>
        </mxCell>
        <mxCell id="EZE-OWPgXGvBPy29LJ_Y-202" value="否" style="edgeLabel;html=1;align=center;verticalAlign=middle;resizable=0;points=[];" parent="EZE-OWPgXGvBPy29LJ_Y-201" vertex="1" connectable="0">
          <mxGeometry x="-0.5192" y="4" relative="1" as="geometry">
            <mxPoint as="offset" />
          </mxGeometry>
        </mxCell>
        <mxCell id="zwzdZRf4PgVf-TQgRxlS-21" value="OMS仓储网关" style="swimlane;whiteSpace=wrap;startSize=23;" parent="1" vertex="1">
          <mxGeometry x="1005" y="128" width="280" height="2842" as="geometry" />
        </mxCell>
        <mxCell id="zwzdZRf4PgVf-TQgRxlS-23" value="" style="edgeStyle=orthogonalEdgeStyle;html=1;verticalAlign=bottom;endArrow=open;endSize=8;strokeColor=#ff0000;rounded=0;" parent="zwzdZRf4PgVf-TQgRxlS-21" edge="1">
          <mxGeometry relative="1" as="geometry">
            <mxPoint x="145" y="1706" as="targetPoint" />
            <mxPoint x="145" y="1706" as="sourcePoint" />
          </mxGeometry>
        </mxCell>
        <mxCell id="EZE-OWPgXGvBPy29LJ_Y-186" value="&lt;span style=&quot;text-wrap-mode: nowrap;&quot;&gt;红布林收货入库&lt;/span&gt;" style="rounded=1;whiteSpace=wrap;html=1;arcSize=40;fontColor=#000000;fillColor=#ffffc0;strokeColor=#ff0000;" parent="zwzdZRf4PgVf-TQgRxlS-21" vertex="1">
          <mxGeometry x="85" y="1840" width="120" height="40" as="geometry" />
        </mxCell>
        <mxCell id="zwzdZRf4PgVf-TQgRxlS-38" value="创建出库单" style="rounded=1;whiteSpace=wrap;html=1;arcSize=40;fontColor=#000000;fillColor=#ffffc0;strokeColor=#ff0000;" parent="zwzdZRf4PgVf-TQgRxlS-21" vertex="1">
          <mxGeometry x="80" y="2692" width="120" height="40" as="geometry" />
        </mxCell>
        <mxCell id="zwzdZRf4PgVf-TQgRxlS-33" style="edgeStyle=orthogonalEdgeStyle;rounded=0;orthogonalLoop=1;jettySize=auto;html=1;" parent="1" source="EZE-OWPgXGvBPy29LJ_Y-186" target="EZE-OWPgXGvBPy29LJ_Y-144" edge="1">
          <mxGeometry relative="1" as="geometry" />
        </mxCell>
        <mxCell id="zwzdZRf4PgVf-TQgRxlS-40" style="edgeStyle=orthogonalEdgeStyle;rounded=0;orthogonalLoop=1;jettySize=auto;html=1;entryX=0;entryY=0.5;entryDx=0;entryDy=0;" parent="1" source="zwzdZRf4PgVf-TQgRxlS-37" target="0cEzOgvrc82-WshAzxFz-19" edge="1">
          <mxGeometry relative="1" as="geometry">
            <mxPoint x="1340" y="2740" as="targetPoint" />
          </mxGeometry>
        </mxCell>
        <mxCell id="0cEzOgvrc82-WshAzxFz-17" value="zzpaycenter" style="swimlane;whiteSpace=wrap;startSize=23;" parent="1" vertex="1">
          <mxGeometry x="1285" y="128" width="280" height="2842" as="geometry" />
        </mxCell>
        <mxCell id="0cEzOgvrc82-WshAzxFz-18" value="" style="edgeStyle=orthogonalEdgeStyle;html=1;verticalAlign=bottom;endArrow=open;endSize=8;strokeColor=#ff0000;rounded=0;" parent="0cEzOgvrc82-WshAzxFz-17" edge="1">
          <mxGeometry relative="1" as="geometry">
            <mxPoint x="145" y="1706" as="targetPoint" />
            <mxPoint x="145" y="1706" as="sourcePoint" />
          </mxGeometry>
        </mxCell>
        <mxCell id="0cEzOgvrc82-WshAzxFz-19" value="创建支付单" style="rounded=1;whiteSpace=wrap;html=1;arcSize=40;fontColor=#000000;fillColor=#ffffc0;strokeColor=#ff0000;" parent="0cEzOgvrc82-WshAzxFz-17" vertex="1">
          <mxGeometry x="75" y="2592" width="120" height="40" as="geometry" />
        </mxCell>
        <mxCell id="0cEzOgvrc82-WshAzxFz-20" style="edgeStyle=orthogonalEdgeStyle;rounded=0;orthogonalLoop=1;jettySize=auto;html=1;exitX=0.5;exitY=1;exitDx=0;exitDy=0;" parent="1" source="0cEzOgvrc82-WshAzxFz-19" edge="1">
          <mxGeometry relative="1" as="geometry">
            <Array as="points">
              <mxPoint x="1420" y="2840" />
            </Array>
            <mxPoint x="1205" y="2840" as="targetPoint" />
          </mxGeometry>
        </mxCell>
        <mxCell id="0cEzOgvrc82-WshAzxFz-21" style="edgeStyle=orthogonalEdgeStyle;rounded=0;orthogonalLoop=1;jettySize=auto;html=1;" parent="1" source="zwzdZRf4PgVf-TQgRxlS-38" target="zwzdZRf4PgVf-TQgRxlS-41" edge="1">
          <mxGeometry relative="1" as="geometry" />
        </mxCell>
        <mxCell id="Bzt49c9w2lYfbCFxkrCM-15" style="edgeStyle=orthogonalEdgeStyle;rounded=0;orthogonalLoop=1;jettySize=auto;html=1;entryX=1;entryY=0.5;entryDx=0;entryDy=0;" edge="1" parent="1" source="zwzdZRf4PgVf-TQgRxlS-15" target="zwzdZRf4PgVf-TQgRxlS-28">
          <mxGeometry relative="1" as="geometry" />
        </mxCell>
        <mxCell id="Bzt49c9w2lYfbCFxkrCM-17" style="edgeStyle=orthogonalEdgeStyle;rounded=0;orthogonalLoop=1;jettySize=auto;html=1;entryX=1;entryY=0.5;entryDx=0;entryDy=0;" edge="1" parent="1" source="zwzdZRf4PgVf-TQgRxlS-41" target="zwzdZRf4PgVf-TQgRxlS-39">
          <mxGeometry relative="1" as="geometry" />
        </mxCell>
        <mxCell id="Bzt49c9w2lYfbCFxkrCM-19" style="edgeStyle=orthogonalEdgeStyle;rounded=0;orthogonalLoop=1;jettySize=auto;html=1;entryX=0;entryY=0.5;entryDx=0;entryDy=0;" edge="1" parent="1" source="EZE-OWPgXGvBPy29LJ_Y-64" target="EZE-OWPgXGvBPy29LJ_Y-71">
          <mxGeometry relative="1" as="geometry" />
        </mxCell>
        <mxCell id="Bzt49c9w2lYfbCFxkrCM-20" style="edgeStyle=orthogonalEdgeStyle;rounded=0;orthogonalLoop=1;jettySize=auto;html=1;" edge="1" parent="1" source="EZE-OWPgXGvBPy29LJ_Y-58" target="EZE-OWPgXGvBPy29LJ_Y-61">
          <mxGeometry relative="1" as="geometry" />
        </mxCell>
        <mxCell id="Bzt49c9w2lYfbCFxkrCM-21" style="edgeStyle=orthogonalEdgeStyle;rounded=0;orthogonalLoop=1;jettySize=auto;html=1;entryX=0.5;entryY=0;entryDx=0;entryDy=0;" edge="1" parent="1" source="EZE-OWPgXGvBPy29LJ_Y-75" target="EZE-OWPgXGvBPy29LJ_Y-53">
          <mxGeometry relative="1" as="geometry" />
        </mxCell>
        <mxCell id="Bzt49c9w2lYfbCFxkrCM-25" style="edgeStyle=orthogonalEdgeStyle;rounded=0;orthogonalLoop=1;jettySize=auto;html=1;entryX=0;entryY=0.5;entryDx=0;entryDy=0;" edge="1" parent="1" source="EZE-OWPgXGvBPy29LJ_Y-68" target="EZE-OWPgXGvBPy29LJ_Y-72">
          <mxGeometry relative="1" as="geometry" />
        </mxCell>
        <mxCell id="Bzt49c9w2lYfbCFxkrCM-34" style="edgeStyle=orthogonalEdgeStyle;rounded=0;orthogonalLoop=1;jettySize=auto;html=1;entryX=0;entryY=0.5;entryDx=0;entryDy=0;" edge="1" parent="1" source="EZE-OWPgXGvBPy29LJ_Y-193" target="EZE-OWPgXGvBPy29LJ_Y-100">
          <mxGeometry relative="1" as="geometry" />
        </mxCell>
        <mxCell id="Bzt49c9w2lYfbCFxkrCM-35" style="edgeStyle=orthogonalEdgeStyle;rounded=0;orthogonalLoop=1;jettySize=auto;html=1;entryX=0;entryY=0.5;entryDx=0;entryDy=0;" edge="1" parent="1" source="EZE-OWPgXGvBPy29LJ_Y-140" target="EZE-OWPgXGvBPy29LJ_Y-142">
          <mxGeometry relative="1" as="geometry" />
        </mxCell>
        <mxCell id="Bzt49c9w2lYfbCFxkrCM-40" style="edgeStyle=orthogonalEdgeStyle;rounded=0;orthogonalLoop=1;jettySize=auto;html=1;entryX=0.5;entryY=0;entryDx=0;entryDy=0;" edge="1" parent="1" source="EZE-OWPgXGvBPy29LJ_Y-185" target="EZE-OWPgXGvBPy29LJ_Y-149">
          <mxGeometry relative="1" as="geometry">
            <Array as="points">
              <mxPoint x="300" y="2070" />
              <mxPoint x="580" y="2070" />
            </Array>
          </mxGeometry>
        </mxCell>
        <mxCell id="EZE-OWPgXGvBPy29LJ_Y-102" value="履约单" style="swimlane;whiteSpace=wrap" parent="1" vertex="1">
          <mxGeometry x="-150" y="128" width="314.5" height="2840" as="geometry" />
        </mxCell>
        <mxCell id="EZE-OWPgXGvBPy29LJ_Y-106" value="待分配（1000）" style="" parent="EZE-OWPgXGvBPy29LJ_Y-102" vertex="1">
          <mxGeometry x="85.5" y="392" width="110" height="48" as="geometry" />
        </mxCell>
        <mxCell id="EZE-OWPgXGvBPy29LJ_Y-113" value="待报价（3010）" style="" parent="EZE-OWPgXGvBPy29LJ_Y-102" vertex="1">
          <mxGeometry x="85" y="568" width="110" height="48" as="geometry" />
        </mxCell>
        <mxCell id="EZE-OWPgXGvBPy29LJ_Y-114" value="报价中（3020）" style="" parent="EZE-OWPgXGvBPy29LJ_Y-102" vertex="1">
          <mxGeometry x="87.67" y="892" width="110" height="48" as="geometry" />
        </mxCell>
        <mxCell id="EZE-OWPgXGvBPy29LJ_Y-116" value="报价完成（3030）" style="" parent="EZE-OWPgXGvBPy29LJ_Y-102" vertex="1">
          <mxGeometry x="105.5" y="1052" width="110" height="48" as="geometry" />
        </mxCell>
        <mxCell id="EZE-OWPgXGvBPy29LJ_Y-119" value="鉴定中（3040）" style="" parent="EZE-OWPgXGvBPy29LJ_Y-102" vertex="1">
          <mxGeometry x="105.5" y="1137" width="110" height="48" as="geometry" />
        </mxCell>
        <mxCell id="EZE-OWPgXGvBPy29LJ_Y-122" value="鉴定通过-待用户确认&#xa;（3050）&#xa;等价于 7001" style="" parent="EZE-OWPgXGvBPy29LJ_Y-102" vertex="1">
          <mxGeometry x="101.09" y="1318" width="110" height="48" as="geometry" />
        </mxCell>
        <mxCell id="EZE-OWPgXGvBPy29LJ_Y-133" value="前往服务（2010）" style="" parent="EZE-OWPgXGvBPy29LJ_Y-102" vertex="1">
          <mxGeometry x="85" y="516" width="110" height="48" as="geometry" />
        </mxCell>
        <mxCell id="EZE-OWPgXGvBPy29LJ_Y-136" value="需要复检（3080）&#xa;等价于7003" style="" parent="EZE-OWPgXGvBPy29LJ_Y-102" vertex="1">
          <mxGeometry x="106.08" y="1642" width="110" height="48" as="geometry" />
        </mxCell>
        <mxCell id="EZE-OWPgXGvBPy29LJ_Y-176" value="待报价（3010）" style="" parent="EZE-OWPgXGvBPy29LJ_Y-102" vertex="1">
          <mxGeometry x="87.67" y="642" width="110" height="48" as="geometry" />
        </mxCell>
        <mxCell id="EZE-OWPgXGvBPy29LJ_Y-190" value="鉴定通过-用户已确认&#xa;（3060）" style="" parent="EZE-OWPgXGvBPy29LJ_Y-102" vertex="1">
          <mxGeometry x="106.09" y="1422" width="110" height="48" as="geometry" />
        </mxCell>
        <mxCell id="EZE-OWPgXGvBPy29LJ_Y-108" value="待上门（2000）" style="" parent="EZE-OWPgXGvBPy29LJ_Y-102" vertex="1">
          <mxGeometry x="85" y="458" width="110" height="48" as="geometry" />
        </mxCell>
        <mxCell id="EZE-OWPgXGvBPy29LJ_Y-208" value="打款完成&#xa;（3070）" style="" parent="EZE-OWPgXGvBPy29LJ_Y-102" vertex="1">
          <mxGeometry x="101.09" y="1508" width="110" height="48" as="geometry" />
        </mxCell>
        <mxCell id="Bzt49c9w2lYfbCFxkrCM-23" style="edgeStyle=orthogonalEdgeStyle;rounded=0;orthogonalLoop=1;jettySize=auto;html=1;entryX=1;entryY=0.5;entryDx=0;entryDy=0;" edge="1" parent="1" source="EZE-OWPgXGvBPy29LJ_Y-111" target="EZE-OWPgXGvBPy29LJ_Y-113">
          <mxGeometry relative="1" as="geometry" />
        </mxCell>
        <mxCell id="Bzt49c9w2lYfbCFxkrCM-24" style="edgeStyle=orthogonalEdgeStyle;rounded=0;orthogonalLoop=1;jettySize=auto;html=1;entryX=1;entryY=0.5;entryDx=0;entryDy=0;" edge="1" parent="1" source="EZE-OWPgXGvBPy29LJ_Y-68" target="EZE-OWPgXGvBPy29LJ_Y-114">
          <mxGeometry relative="1" as="geometry" />
        </mxCell>
        <mxCell id="Bzt49c9w2lYfbCFxkrCM-26" style="edgeStyle=orthogonalEdgeStyle;rounded=0;orthogonalLoop=1;jettySize=auto;html=1;entryX=1;entryY=0.5;entryDx=0;entryDy=0;" edge="1" parent="1" source="EZE-OWPgXGvBPy29LJ_Y-88" target="EZE-OWPgXGvBPy29LJ_Y-119">
          <mxGeometry relative="1" as="geometry" />
        </mxCell>
        <mxCell id="Bzt49c9w2lYfbCFxkrCM-31" style="edgeStyle=orthogonalEdgeStyle;rounded=0;orthogonalLoop=1;jettySize=auto;html=1;" edge="1" parent="1" source="EZE-OWPgXGvBPy29LJ_Y-89" target="EZE-OWPgXGvBPy29LJ_Y-122">
          <mxGeometry relative="1" as="geometry">
            <Array as="points">
              <mxPoint x="320" y="1430" />
              <mxPoint x="-2" y="1430" />
            </Array>
          </mxGeometry>
        </mxCell>
        <mxCell id="Bzt49c9w2lYfbCFxkrCM-32" value="真" style="edgeLabel;html=1;align=center;verticalAlign=middle;resizable=0;points=[];" vertex="1" connectable="0" parent="Bzt49c9w2lYfbCFxkrCM-31">
          <mxGeometry x="0.0609" relative="1" as="geometry">
            <mxPoint as="offset" />
          </mxGeometry>
        </mxCell>
        <mxCell id="EZE-OWPgXGvBPy29LJ_Y-134" style="edgeStyle=orthogonalEdgeStyle;rounded=0;orthogonalLoop=1;jettySize=auto;html=1;entryX=1;entryY=0.5;entryDx=0;entryDy=0;" parent="1" source="EZE-OWPgXGvBPy29LJ_Y-132" target="EZE-OWPgXGvBPy29LJ_Y-133" edge="1">
          <mxGeometry relative="1" as="geometry" />
        </mxCell>
        <mxCell id="EZE-OWPgXGvBPy29LJ_Y-137" style="edgeStyle=orthogonalEdgeStyle;rounded=0;orthogonalLoop=1;jettySize=auto;html=1;exitX=0.017;exitY=0.483;exitDx=0;exitDy=0;exitPerimeter=0;entryX=0;entryY=0.5;entryDx=0;entryDy=0;" parent="1" source="EZE-OWPgXGvBPy29LJ_Y-89" target="EZE-OWPgXGvBPy29LJ_Y-136" edge="1">
          <mxGeometry relative="1" as="geometry">
            <mxPoint x="-630" y="1450" as="sourcePoint" />
            <Array as="points">
              <mxPoint x="-100" y="1393" />
              <mxPoint x="-100" y="1794" />
            </Array>
            <mxPoint x="-90" y="1794" as="targetPoint" />
          </mxGeometry>
        </mxCell>
        <mxCell id="EZE-OWPgXGvBPy29LJ_Y-139" value="需要复检" style="edgeLabel;html=1;align=center;verticalAlign=middle;resizable=0;points=[];" parent="EZE-OWPgXGvBPy29LJ_Y-137" vertex="1" connectable="0">
          <mxGeometry x="0.2875" relative="1" as="geometry">
            <mxPoint as="offset" />
          </mxGeometry>
        </mxCell>
        <mxCell id="0cEzOgvrc82-WshAzxFz-16" style="edgeStyle=orthogonalEdgeStyle;rounded=0;orthogonalLoop=1;jettySize=auto;html=1;" parent="1" source="EZE-OWPgXGvBPy29LJ_Y-136" target="0cEzOgvrc82-WshAzxFz-15" edge="1">
          <mxGeometry relative="1" as="geometry">
            <Array as="points">
              <mxPoint x="3" y="1830" />
            </Array>
          </mxGeometry>
        </mxCell>
        <mxCell id="EZE-OWPgXGvBPy29LJ_Y-177" style="edgeStyle=orthogonalEdgeStyle;rounded=0;orthogonalLoop=1;jettySize=auto;html=1;entryX=1;entryY=0.5;entryDx=0;entryDy=0;" parent="1" source="EZE-OWPgXGvBPy29LJ_Y-174" target="EZE-OWPgXGvBPy29LJ_Y-176" edge="1">
          <mxGeometry relative="1" as="geometry" />
        </mxCell>
        <mxCell id="EZE-OWPgXGvBPy29LJ_Y-110" style="edgeStyle=orthogonalEdgeStyle;rounded=0;orthogonalLoop=1;jettySize=auto;html=1;entryX=1;entryY=0.5;entryDx=0;entryDy=0;" parent="1" source="EZE-OWPgXGvBPy29LJ_Y-58" target="EZE-OWPgXGvBPy29LJ_Y-108" edge="1">
          <mxGeometry relative="1" as="geometry" />
        </mxCell>
        <mxCell id="0cEzOgvrc82-WshAzxFz-22" style="edgeStyle=orthogonalEdgeStyle;rounded=0;orthogonalLoop=1;jettySize=auto;html=1;entryX=1;entryY=0.5;entryDx=0;entryDy=0;" parent="1" source="EZE-OWPgXGvBPy29LJ_Y-193" target="EZE-OWPgXGvBPy29LJ_Y-208" edge="1">
          <mxGeometry relative="1" as="geometry" />
        </mxCell>
        <mxCell id="Bzt49c9w2lYfbCFxkrCM-45" style="edgeStyle=orthogonalEdgeStyle;rounded=0;orthogonalLoop=1;jettySize=auto;html=1;entryX=1;entryY=0.5;entryDx=0;entryDy=0;" edge="1" parent="1" source="EZE-OWPgXGvBPy29LJ_Y-156" target="EZE-OWPgXGvBPy29LJ_Y-165">
          <mxGeometry relative="1" as="geometry">
            <Array as="points">
              <mxPoint x="860" y="2324" />
            </Array>
          </mxGeometry>
        </mxCell>
      </root>
    </mxGraphModel>
  </diagram>
</mxfile>
